<svg width="92" height="59" viewBox="0 0 92 59" fill="none" xmlns="http://www.w3.org/2000/svg">
<path d="M80.2982 36.4063C78.4316 36.4063 76.7805 34.5896 76.7805 29.7936C76.7805 24.4889 79.9392 17.1495 84.821 17.1495C87.0465 17.1495 87.9079 19.4022 87.9079 22.3089C87.9797 27.9769 84.5338 36.4063 80.2982 36.4063ZM61.499 31.9202C61.4924 31.9557 61.4912 31.9907 61.4791 32.0247C61.4405 32.1337 61.3838 32.2434 61.3184 32.3388C60.0277 34.2223 58.1488 35.5343 56.6792 35.5343C55.2434 35.5343 53.5204 34.0083 53.5204 31.2469C53.5204 26.1602 56.1766 17.0768 61.9199 17.0768C62.4942 17.0768 63.0685 17.1495 63.6428 17.3675C64.1873 17.5052 64.0221 18.2993 63.9198 18.8515L61.499 31.9202ZM53.664 53.9918C52.5871 53.9918 51.1513 53.1198 51.1513 51.4484C51.1513 48.6144 54.0229 46.5797 58.1868 44.327C58.6175 44.109 59.12 44.4724 58.9765 44.981C57.4689 50.9398 56.2484 53.9918 53.664 53.9918ZM28.1067 17.2221C29.1117 17.2221 29.5425 18.3122 29.5425 19.3295C29.3989 22.7449 26.5991 26.1602 22.0763 29.2849C21.6455 29.5756 21.143 29.2122 21.2148 28.7036C21.7173 24.5615 23.5839 17.2221 28.1067 17.2221ZM15.5434 3.5607C16.1177 3.5607 16.6202 4.2147 16.6202 5.08671C16.6202 6.68539 13.5332 13.8794 9.58476 21.6548C9.2976 22.2362 8.36433 21.9455 8.50791 21.2915C10.518 11.4814 13.964 3.5607 15.5434 3.5607ZM83.6723 12.9348C75.56 12.9348 69.8886 23.2535 69.8886 31.4649C69.8886 32.4823 69.9604 33.4996 70.1757 34.4443C70.3114 34.8563 69.7792 35.1477 69.4208 35.392C68.7153 35.8727 67.9738 36.3804 67.2323 36.8423C66.8016 37.0603 66.2991 36.7696 66.3709 36.261C66.3709 36.043 66.4426 35.7523 66.5144 35.4616L70.4629 14.3155C70.6104 13.8675 69.9772 13.5949 69.5325 13.4379C69.1628 13.3074 68.7495 13.2254 68.3092 13.2254C67.3041 13.2254 66.2273 13.5888 65.4376 14.3881C65.2222 14.6061 64.8633 14.6061 64.6479 14.4608C63.4993 13.5161 62.1352 13.0801 60.2687 13.0801C53.7358 13.0801 47.7772 22.7449 47.7054 31.6829C47.7054 32.3369 47.7772 33.0636 47.849 33.8629C47.849 34.2859 47.4656 34.5752 47.1091 34.8028C45.9129 35.5667 44.5023 36.1156 43.2544 36.1156C41.8904 36.1156 41.0289 35.171 41.675 32.1189L44.5466 17.5128C44.6184 17.2221 44.8338 17.0768 45.1209 17.0768H49.213C50.7206 17.0768 51.5103 15.9868 51.5103 14.4608C51.5103 14.1701 51.2231 13.8794 50.936 13.8794H46.0542C45.6953 13.8794 45.4081 13.5161 45.4799 13.1528L46.8439 6.61272C46.9157 6.32205 46.7721 6.10405 46.5568 5.95872C45.9824 5.66805 45.1927 5.45004 44.403 5.45004C42.4647 5.45004 40.4546 6.39472 39.8803 8.86541L38.947 13.2981C38.8752 13.5888 38.6598 13.7341 38.3727 13.7341H37.7983C36.2907 13.7341 35.5011 14.8241 35.5011 16.3501C35.5011 16.6408 35.7882 16.9315 36.0754 16.9315H37.5112C37.8701 16.9315 38.1573 17.2948 38.0855 17.6581L35.3536 30.6338C35.3084 30.8482 35.2961 31.091 35.1421 31.2469C32.773 34.0809 28.8963 36.3336 25.4504 36.3336C23.4489 36.3336 21.9119 35.5108 21.3095 33.4422C21.168 32.9563 21.0107 32.3293 21.4302 32.0463C31.2654 26.4509 33.4191 22.8902 33.5627 18.1668C33.6345 15.6961 32.5577 12.9348 27.9631 12.9348C19.5636 12.9348 14.969 24.2709 14.6819 31.3196C14.6819 32.1916 14.6819 32.9909 14.7537 33.7176C14.7537 33.9356 14.6819 34.1536 14.4665 34.299C12.9589 35.171 11.2359 35.7523 9.80013 35.7523C7.93359 35.7523 6.42599 34.6623 6.85673 31.8283C6.92852 31.2469 7.00031 30.5203 7.0721 29.9389C7.0721 29.7877 7.18783 29.6529 7.26969 29.5258C14.1029 18.916 19.5636 8.91196 19.5636 4.6507C19.6354 1.96202 17.6253 0 15.1126 0C8.07717 0 2.62111 13.3708 0.108449 33.0636C-0.609453 38.8043 2.33395 41.1297 6.06704 41.1297C9.01044 41.1297 12.5282 39.8217 15.2562 37.6416C15.5434 37.4236 15.9023 37.4963 16.0459 37.787C17.5535 40.0397 19.9944 41.1297 22.866 41.1297C26.4555 41.1297 30.2604 39.4583 33.4909 36.4063C33.8499 36.043 34.4242 36.261 34.4242 36.7696C34.6396 39.8943 36.5061 41.1297 38.947 41.1297C41.9622 41.1297 45.3363 39.3857 47.849 37.0603C48.1361 36.7696 48.5669 36.915 48.7822 37.2783C49.7873 39.4583 51.4385 41.1297 54.0947 41.1297C55.9613 41.1297 57.8278 39.967 59.4072 38.1503C59.8379 37.7143 60.5559 38.0776 60.4123 38.659C60.3658 38.941 60.2893 39.2231 60.2217 39.5052C60.1487 39.8094 60.1171 40.189 59.838 40.3303C55.7459 42.5103 47.9926 46.2891 47.9926 52.5384C47.9926 55.8811 50.7206 58.8605 54.2383 58.8605C61.9395 58.8605 63.3131 51.048 65.4076 41.2414C65.4749 40.9266 65.5093 40.5484 65.7965 40.403C67.5195 39.4583 69.2425 38.2957 70.5347 37.351C70.8219 37.133 71.1808 37.2056 71.3244 37.4963C72.5448 39.6763 74.6985 41.057 77.7855 41.057C86.185 41.057 92 30.7383 92 22.6722C92 17.3675 89.5591 12.9348 83.6723 12.9348Z" fill="#FF3F55"/>
</svg>
